<svg width="22" height="22" viewBox="0 0 22 22" fill="none" xmlns="http://www.w3.org/2000/svg">
  <path d="M7.24 4.62C7.62 4.24 8.22 4.17 8.68 4.45L10.26 5.4C10.79 5.72 11.01 6.39 10.78 6.96L10.18 8.43C10.05 8.74 10.11 9.11 10.33 9.36C11.08 10.23 11.88 11.02 12.75 11.77C13 11.99 13.37 12.05 13.68 11.92L15.15 11.32C15.72 11.09 16.39 11.31 16.71 11.84L17.66 13.42C17.94 13.88 17.87 14.48 17.49 14.86L16.74 15.61C16.18 16.17 15.35 16.39 14.58 16.2C12.59 15.69 10.77 14.64 9.15 13.02C7.53 11.4 6.48 9.58 5.97 7.59C5.78 6.82 6 5.99 6.56 5.43L7.24 4.62Z" stroke="white" stroke-width="1.7" stroke-linecap="round" stroke-linejoin="round"/>
</svg>
