<svg width="320" height="120" viewBox="0 0 320 120" fill="none" xmlns="http://www.w3.org/2000/svg">
  <g opacity="0.55" stroke="#E5ECFA" stroke-width="1.4" stroke-linecap="round">
    <path d="M0 12C13.333 4 26.667 4 40 12C53.333 20 66.667 20 80 12C93.333 4 106.667 4 120 12C133.333 20 146.667 20 160 12C173.333 4 186.667 4 200 12C213.333 20 226.667 20 240 12C253.333 4 266.667 4 280 12C293.333 20 306.667 20 320 12"/>
    <path d="M0 28C13.333 20 26.667 20 40 28C53.333 36 66.667 36 80 28C93.333 20 106.667 20 120 28C133.333 36 146.667 36 160 28C173.333 20 186.667 20 200 28C213.333 36 226.667 36 240 28C253.333 20 266.667 20 280 28C293.333 36 306.667 36 320 28"/>
    <path d="M0 44C13.333 36 26.667 36 40 44C53.333 52 66.667 52 80 44C93.333 36 106.667 36 120 44C133.333 52 146.667 52 160 44C173.333 36 186.667 36 200 44C213.333 52 226.667 52 240 44C253.333 36 266.667 36 280 44C293.333 52 306.667 52 320 44"/>
    <path d="M0 60C13.333 52 26.667 52 40 60C53.333 68 66.667 68 80 60C93.333 52 106.667 52 120 60C133.333 68 146.667 68 160 60C173.333 52 186.667 52 200 60C213.333 68 226.667 68 240 60C253.333 52 266.667 52 280 60C293.333 68 306.667 68 320 60"/>
    <path d="M0 76C13.333 68 26.667 68 40 76C53.333 84 66.667 84 80 76C93.333 68 106.667 68 120 76C133.333 84 146.667 84 160 76C173.333 68 186.667 68 200 76C213.333 84 226.667 84 240 76C253.333 68 266.667 68 280 76C293.333 84 306.667 84 320 76"/>
    <path d="M0 92C13.333 84 26.667 84 40 92C53.333 100 66.667 100 80 92C93.333 84 106.667 84 120 92C133.333 100 146.667 100 160 92C173.333 84 186.667 84 200 92C213.333 100 226.667 100 240 92C253.333 84 266.667 84 280 92C293.333 100 306.667 100 320 92"/>
    <path d="M0 108C13.333 100 26.667 100 40 108C53.333 116 66.667 116 80 108C93.333 100 106.667 100 120 108C133.333 116 146.667 116 160 108C173.333 100 186.667 100 200 108C213.333 116 226.667 116 240 108C253.333 100 266.667 100 280 108C293.333 116 306.667 116 320 108"/>
  </g>
</svg>
